<svg xmlns="http://www.w3.org/2000/svg" width="84" height="22"><g fill="#202024" fill-rule="evenodd"><path d="M6.8 0c4.613 0 6.555 2.178 6.555 5.082l-.243.242H10.2l-.243-.242c0-1.452-.728-2.178-3.4-2.178C4.37 2.9 3.641 3.63 3.641 4.6c0 1.452.971 1.936 4.37 2.42s6.069 1.936 6.069 5.324c0 2.662-1.942 5.082-7.04 5.082C2.185 17.424 0 15 0 11.858l.243-.242h2.913l.243.242c0 1.694.971 2.662 3.884 2.662 2.185 0 3.4-.726 3.4-2.178 0-1.694-.971-2.178-4.369-2.662S.243 7.986.243 4.6C.243 2.178 2.185 0 6.8 0zM22.289 4.752c2.914 0 5.343 2.429 5.343 6.316s-2.429 6.316-5.343 6.316a4.089 4.089 0 0 1-3.158-1.214h-.243v5.587l-.243.243h-2.914l-.243-.243V5.238L15.731 5H18.4l.242.238.243.729h.243a4.087 4.087 0 0 1 3.161-1.215zm-.729 2.915c-1.943 0-2.672 1.458-2.672 3.4s.729 3.4 2.672 3.4 2.672-1.457 2.672-3.4-.732-3.4-2.672-3.4zM31.92 5.1l.24.243.24.729h.24s.48-.972 2.64-.972h1.44l.24.243v2.433l-.24.243h-1.68c-1.92 0-2.64.971-2.64 3.157v5.829l-.24.243h-2.88l-.24-.243V5.347l.24-.243zM40.626 5.1l.243.242 2.921 8.217h.244l2.92-8.217.246-.242h2.191l.243.242v2.42l-3.895 9.667c-.973 2.417-1.947 3.867-5.354 3.867h-1.219l-.244-.242v-2.416l.244-.242h1.217c1.217 0 1.46-.242 1.7-.967v-.241l-3.9-9.426V5.346l.244-.242zM54.152.176l.248.241v9.655h.242l4.85-4.827.48-.245h1.455l.243.242v2.417l-2.91 2.9v.241l3.152 3.621v2.414l-.242.241h-1.455l-.485-.241-3.395-3.625h-.243l-1.455 1.448-.242.483v1.69l-.243.241h-2.909L51 16.831V.417l.243-.241zM68.788 4.752c3.872 0 5.808 2.924 5.808 6.336v.975l-.242.244h-7.5l-.242.243a2.2 2.2 0 0 0 2.42 1.95 1.88 1.88 0 0 0 1.694-.731l.242-.244h2.9l.242.244c-.242 1.462-1.452 3.655-5.082 3.655-4.114 0-6.05-2.924-6.05-6.336s1.938-6.336 5.81-6.336zm0 2.924a2.058 2.058 0 0 0-2.178 1.95l.242.244h3.872l.242-.244a2.058 2.058 0 0 0-2.178-1.95zM78.88 5.1l.24.243.24.729h.24s.48-.972 2.64-.972h1.44l.24.243v2.433l-.24.243H82c-1.92 0-2.64.971-2.64 3.157v5.829l-.24.243h-2.88l-.24-.243V5.347l.24-.243z"/></g></svg>
