<?xml version="1.0" encoding="UTF-8"?><svg width="35" height="54" xmlns="http://www.w3.org/2000/svg"><g fill="none" fill-rule="evenodd"><path d="M18.685 50.491l.094.391c.098.463.087.907-.01 1.306-.095.388-.27.732-.504 1.013a2.225 2.225 0 0 1-.83.621c-.31.132-.656.195-1.026.174a3.109 3.109 0 0 1-1.057-.259 3.988 3.988 0 0 1-.945-.583 4.36 4.36 0 0 1-.775-.834 4.076 4.076 0 0 1-.539-1.041c-.009-.023-.016-.046-.024-.07l-.02-.069c-.008-.023-.014-.046-.02-.068l-.01-.035-.009-.033-.006-.011-.003-.01-.007-.01-.004-.012c.122.071.244.147.363.23.118.082.233.171.338.27a1.66 1.66 0 0 1 .422.573l.053.136.017.058.008.028.007.028.013.057a1.1 1.1 0 0 1 .012.057c.152.13.308.258.466.375.159.12.32.227.488.321.166.096.338.173.514.23.18.058.363.093.554.1.194.009.35-.024.48-.085a.975.975 0 0 0 .329-.265c.093-.113.172-.245.254-.386.084-.142.168-.294.269-.443l-.033-.076-.031-.08-.028-.08-.022-.083a.618.618 0 0 1 .052-.434c.067-.135.177-.26.307-.379.133-.117.286-.229.437-.33.153-.106.303-.202.426-.292zm5.458-17.686a28.192 28.192 0 0 0-2.088 3.504 30.22 30.22 0 0 0-1.663 4.006 31.319 31.319 0 0 0-1.588 9.262 13.37 13.37 0 0 1-1.069-1.6 13.97 13.97 0 0 1-.848-1.779 14.625 14.625 0 0 1-.607-1.93 15.57 15.57 0 0 1-.429-3.466c-.006-.466.008-.93.043-1.39a16.578 16.578 0 0 1 .421-2.686zM7.32 37.75l3.402.108a22.76 22.76 0 0 1 .674 1.953 26.008 26.008 0 0 1 .837 3.878c.081.566.143 1.128.187 1.686.045.556.072 1.108.083 1.649.01.541.004 1.074-.02 1.592a40.535 40.535 0 0 0-1.077-3.386 33.645 33.645 0 0 0-1.25-2.966c-.44-.91-.9-1.746-1.378-2.504-.472-.75-.96-1.422-1.458-2.01zm-2.556-5.497l1.503 4.423a9.085 9.085 0 0 0-1.13-.882 6.414 6.414 0 0 0-1.122-.59 4.635 4.635 0 0 0-1.1-.295c-.362-.05-.719-.05-1.071 0 .126-.298.259-.551.399-.773.14-.223.29-.413.448-.584.157-.17.326-.32.506-.462.181-.141.374-.276.581-.412.037-.025.076-.049.113-.072a5.74 5.74 0 0 1 .226-.125c.04-.02.078-.036.117-.054.044-.019.086-.037.13-.054l.132-.047a3.186 3.186 0 0 1 .268-.073zm.766 0c.396.015.795.12 1.192.309.402.19.802.467 1.193.824.395.36.783.802 1.155 1.319.3.417.588.883.864 1.395l.204.391-3.178-.046-1.43-4.192zM0 6.353a106.214 106.214 0 0 0 1.3 6.94c.265 1.198.554 2.411.866 3.635a119.25 119.25 0 0 0 1.022 3.722 106.402 106.402 0 0 0 1.774 5.52c.313.887.633 1.754.958 2.597.327.85.66 1.675.998 2.476a3.664 3.664 0 0 0-.445-.178 3.058 3.058 0 0 0-.884-.147c-.145 0-.29.01-.433.033a90.264 90.264 0 0 1-.973-3.13c-.315-1.073-.62-2.184-.913-3.325a122.72 122.72 0 0 1-1.608-7.153A132.547 132.547 0 0 1 .312 9.01C.199 8.115.094 7.228 0 6.352zm31.736 17.975a8.77 8.77 0 0 1 1.267.074c.42.055.84.146 1.277.278-.75.293-1.485.634-2.202 1.022-.73.393-1.44.837-2.13 1.325a22.456 22.456 0 0 0-2.04 1.631c-.5.45-.986.926-1.457 1.427l-.465.509.609-5.398a15.763 15.763 0 0 1 1.114-.329c.187-.047.376-.09.565-.13l.285-.056.285-.05.025-.005.024-.003.024-.004.026-.004c.516-.08 1-.15 1.464-.2.459-.05.899-.082 1.329-.087z" fill="#202024"/><path d="M16.956 34.648c.011-.032.025-.064.038-.097l.039-.096.04-.095.04-.097c.368-1.266.96-2.35 1.635-3.505.66-1.13 1.398-2.319 2.08-3.798.661-1.44 1.265-3.146 1.688-5.323.409-2.107.644-4.64.592-7.77-.02-1.348-.05-2.654-.098-3.916a78.629 78.629 0 0 0-.212-3.602 45.346 45.346 0 0 0-.39-3.31A30.21 30.21 0 0 0 21.774 0a48.714 48.714 0 0 1 1.522 4.67 52.943 52.943 0 0 1 1.13 5.217c.2 1.206.383 2.54.525 3.99.144 1.474.248 3.077.284 4.8a66.525 66.525 0 0 1-.13 5.684 72.822 72.822 0 0 1-.756 6.702l-.004.003v.007l-7.39 3.575" fill="#494C4F"/></g></svg>