<?xml version="1.0" encoding="UTF-8" standalone="no"?>
<svg width="1400px" height="675px" viewBox="0 0 1400 675" version="1.1" xmlns="http://www.w3.org/2000/svg" xmlns:xlink="http://www.w3.org/1999/xlink">
    <!-- Generator: Sketch 39 (31667) - http://www.bohemiancoding.com/sketch -->
    <title>ico-universal</title>
    <desc>Created with Sketch.</desc>
    <defs></defs>
    <g id="_prjct" stroke="none" stroke-width="1" fill="none" fill-rule="evenodd">
        <g id="Universal" transform="translate(0.000000, -2726.000000)" fill="#686D70">
            <g id="_content" transform="translate(0.000000, 240.000000)">
                <g id="_phone" transform="translate(0.000000, 2380.000000)">
                    <path d="M759.754638,132.649421 C761.195021,133.159424 762.626068,133.693048 764.046741,134.250971 C717.113969,128.126454 686.512445,153.588809 682.912265,160.729736 C686.851592,166.854253 712.835495,165.525102 716.096527,171.962361 C722.357708,184.289581 730.758127,183.221048 730.366803,177.539581 C728.827596,155.647689 744.637079,171.962361 736.784514,163.335913 C733.99307,160.286685 724.783916,161.250971 730.86248,149.027998 C738.532427,155.647689 739.549869,146.473944 751.785261,156.142863 C759.011708,161.850392 762.533622,164.300199 768.116509,158.175682 C776.282133,161.0946 789.952379,173.760624 803.335655,179.5724 C796.683149,193.359079 774.195073,176.288616 771.194923,184.680508 C768.612186,191.821434 778.317017,194.870662 784.943434,198.467187 C776.282133,206.598461 765.090271,203.340739 765.090271,203.340739 C765.090271,203.340739 767.35995,213.296338 756.872471,216.892863 C752.307026,218.430508 750.01126,227.030894 744.115314,238.810817 C739.967281,247.046338 732.323422,250.877419 722.201179,257.05406 C708.061344,265.680508 730.627685,279.467187 723.740386,297.814678 C707.096079,290.960431 716.722645,263.725875 699.504396,271.179543 C686.408092,276.834948 682.860089,264.299234 668.068048,275.948848 C654.893479,270.814678 639.736202,275.140933 634.07505,284.94016 C626.352927,298.257728 621.265717,311.94016 628.074751,322.93823 C628.074751,322.93823 635.744699,337.480701 638.301348,337.480701 C640.857997,337.480701 653.171654,336.620662 658.284952,334.926647 C663.39825,333.232631 665.511399,327.264485 667.233224,323.850392 C668.92896,320.462361 671.068197,314.077226 674.485759,317.491319 C677.877232,320.87935 689.382153,317.491319 685.547179,320.87935 C681.712206,324.293442 677.01632,344.282824 677.01632,344.282824 L611.03912,344.282824 C607.125882,344.282824 603.42135,339.95657 599.116787,336.43823 C594.838313,332.945952 588.185808,333.336878 588.185808,333.336878 L590.481575,327.942091 C581.507215,327.942091 590.064163,319.237458 590.064163,319.237458 C590.064163,319.237458 567.132586,284.05406 567.576086,265.810817 C567.732616,258.826261 563.506318,266.540546 563.03673,264.69016 C561.001846,279.467187 573.237238,293.227805 568.906587,308.083017 C566.636909,315.875489 562.906288,295.912168 559.488727,290.178577 C553.618869,280.405411 554.192811,290.413133 555.366782,276.913133 C556.984254,259.243249 548.583836,243.892863 548.583836,243.892863 C548.583836,243.892863 552.340545,222.365836 565.045525,208.162168 C580.463684,190.909272 575.533004,187.625489 575.533004,187.625489 C575.533004,187.625489 584.168217,163.388037 592.125135,160.729736 C596.716668,159.218153 593.559989,152.624523 602.743055,146.864871 C602.817202,146.06243 603.459815,145.141084 604.614243,144.137792 C505.276809,174.639246 426.446424,248.088399 392.654379,341.285714 C435.621736,208.527027 537.339846,106 707.330921,106 C865.295311,106 981.361961,209.934363 1023.46841,344.178571 C984.83723,234.154803 883.653014,151.093632 759.754647,132.649425 Z M714.557316,311.08012 C716.5922,308.030892 722.749029,310.063711 727.079679,310.167958 C732.89736,310.298267 731.514683,318.898653 739.575954,317.204637 C747.611136,315.48456 747.715489,324.840738 759.194322,324.501935 C770.725331,324.13707 756.898555,328.515448 756.898555,328.515448 C756.898555,328.515448 749.776462,325.075294 745.184929,327.394792 C742.732633,328.619695 746.071929,326.691124 741.976073,323.355216 C735.662715,318.194985 736.523628,324.319502 725.931796,315.328189 C718.418378,308.969116 711.218019,316.083981 714.557316,311.08012 Z M937.194328,536.957518 C934.637679,533.569487 937.61174,528.435317 937.61174,528.435317 L751.576387,528.435317 L772.316551,546.522189 C776.855907,548.346514 782.595323,552.907325 785.230237,559.865819 C791.439242,576.310799 782.204,562.993232 782.204,587.856166 C782.204,610.712344 775.7602,607.011572 775.7602,607.011572 C775.7602,607.011572 774.377523,634.037633 760.368129,650.638985 C751.472034,659.578174 758.385422,666.979718 758.385422,666.979718 C758.385422,666.979718 755.385272,668.673734 751.028534,688.272189 C749.59368,694.605201 757.733216,704.404429 764.777045,701.954622 C770.072961,700.104236 751.941623,698.358097 771.612168,690.096514 C779.177762,686.890915 772.994845,680.870645 772.994845,680.870645 C772.994845,680.870645 785.699826,679.880298 792.874096,660.672769 C805.552989,662.523155 800.857103,654.756745 826.945358,649.127402 C833.832658,647.667942 835.2936,645.583 834.432688,639.11968 C833.571775,632.630298 842.937459,640.057904 868.790921,613.709448 C889.13976,592.938213 881.808961,588.247093 895.896619,580.71524 C910.793013,572.79246 912.149602,581.392846 917.132459,574.955587 C928.506939,560.152498 924.515435,561.116784 929.23741,551.682421 L932.602795,546.496128 C932.602795,546.496128 939.724889,540.345549 937.194328,536.957518 Z M805.239322,339.875053 L802.699044,341.129321 L802.187794,339.043275 L805.239322,339.875053 Z M792.300357,335.369708 C785.647852,336.803106 778.630111,335.369708 772.447195,340.321445 L768.299162,337.0116 L765.820778,337.0116 C771.61237,332.268357 762.507569,327.316619 772.447195,327.108125 C780.091054,327.316619 785.647852,332.659283 792.300357,335.369708 Z M1022.76402,544.359073 C980.005372,677.456564 859.738512,781 707.330921,781 C545.662,781 437.030502,678.8639 393.332673,547.251931 C438.804504,669.846525 562.280219,757.778958 707.565716,757.778958 C853.920831,757.778958 978.231371,668.465251 1022.76402,544.359073 Z M138.711257,373.784722 L86.8738921,373.784722 L94.6221041,382.984529 L94.6221041,451.005765 C94.6221041,466.277965 84.4998608,472.715224 69.3425842,472.715224 C54.237484,472.715224 44.0891525,466.277965 44.0891525,451.005765 L44.0891525,382.984529 L51.8373645,373.784722 L0,373.784722 L7.748212,382.984529 L7.748212,452.100359 C7.748212,486.00673 26.7404623,499.089741 69.3425842,499.089741 C111.944706,499.089741 130.936956,486.00673 130.936956,452.100359 L130.936956,382.984529 L138.711257,373.784722 Z M318.615864,373.784722 L274.891947,373.784722 L282.614071,382.984529 L282.614071,444.907309 L219.923992,373.784722 L180.635079,373.784722 L188.383291,382.984529 L188.383291,487.466189 L180.635079,496.692058 L224.358995,496.692058 L216.610783,487.466189 L216.610783,424.448815 L283.188012,496.692058 L310.867652,496.692058 L310.867652,382.984529 L318.615864,373.784722 Z M419.342642,496.692091 L411.59443,487.492284 L411.59443,383.010624 L419.342642,373.784755 L367.140042,373.784755 L374.914342,383.010624 L374.914342,487.492284 L367.140042,496.692091 L419.342642,496.692091 Z M591.47294,373.784722 L547.566405,373.784722 L555.314617,382.984529 L524.321769,450.614838 L494.450716,382.984529 L502.198928,373.784722 L450.57027,373.784722 L507.912256,496.692058 L533.557012,496.692058 L591.47294,373.784722 Z M738.088939,496.692091 L738.088939,463.333017 L728.853697,471.073365 L665.954912,471.073365 L665.954912,447.487458 L705.817767,447.487458 L714.844303,455.253867 L714.844303,415.249041 L705.817767,422.989388 L665.954912,422.989388 L665.954912,399.403481 L728.853697,399.403481 L738.088939,407.143828 L738.088939,373.784755 L622.257083,373.784755 L629.979207,383.010624 L629.979207,487.492284 L622.257083,496.692091 L738.088939,496.692091 Z M914.419453,496.692055 L881.052574,448.217151 C897.462087,441.59746 908.914831,428.879314 908.914831,411.000935 C908.914831,390.542441 896.36638,373.784719 861.303764,373.784719 L784.578204,373.784719 L792.326416,383.010588 L792.326416,487.466186 L784.578204,496.692055 L836.024244,496.692055 L828.30212,487.466186 L828.30212,452.647653 L843.798544,452.647653 L867.382328,487.466186 L859.660204,496.692055 L914.419453,496.692055 Z M871.999949,413.581051 C871.999949,422.415993 863.521266,429.609043 851.703286,429.609043 L828.30212,429.609043 L828.30212,399.403445 L856.13829,399.403445 C864.251737,399.403445 871.999949,403.44302 871.999949,413.581051 L871.999949,413.581051 L871.999949,413.581051 Z M1070.24444,460.752874 C1070.24444,441.232604 1054.53931,430.338782 1031.86862,422.963299 C1017.10266,418.376426 996.258147,415.066581 996.258147,405.293415 C996.258147,400.498048 1001.97148,397.188202 1011.93719,397.188202 C1025.2422,397.188202 1046.97372,402.713299 1063.95717,410.818511 L1063.95717,369.71909 L1054.17408,379.127392 C1043.84313,374.879322 1025.94658,370.44882 1013.60684,370.44882 C971.735187,370.44882 958.273647,388.874496 958.273647,405.65828 C958.273647,428.514457 973.404835,438.470056 997.197324,446.757701 C1014.88516,452.830094 1031.32076,453.377392 1031.32076,463.489361 C1031.32076,472.193994 1021.17243,473.288589 1015.98087,473.288589 C1002.91065,473.288589 979.666017,468.675654 959.004118,455.227778 L959.004118,500.731639 L968.787214,490.046311 C978.387692,493.721021 999.96268,500.001909 1017.65052,500.001909 C1054.01755,500.001909 1070.24444,483.973917 1070.24444,460.752874 L1070.24444,460.752874 L1070.24444,460.752874 Z M1400,496.692091 L1400,463.333017 L1390.76476,471.073365 L1331.54442,471.073365 L1331.54442,383.010624 L1339.29263,373.784755 L1287.8205,373.784755 L1295.5948,383.010624 L1295.5948,487.492284 L1287.8205,496.692091 L1400,496.692091 M1254.2188,496.692056 L1193.69404,373.78472 L1152.21372,373.78472 L1156.62263,383.010589 L1101.86338,496.692056 L1147.02216,496.692056 L1139.30003,487.466187 L1145.3786,474.565608 L1204.02499,474.565608 L1209.97312,487.466187 L1202.19882,496.692056 L1254.2188,496.692056 M1195.02455,452.465222 L1154.27469,452.465222 L1174.57135,408.446882 L1195.02455,452.465222" id="ico-universal"></path>
                </g>
            </g>
        </g>
    </g>
</svg>