<?xml version="1.0" encoding="UTF-8" standalone="no"?>
<svg width="44px" height="44px" viewBox="0 0 44 44" version="1.1" xmlns="http://www.w3.org/2000/svg" xmlns:xlink="http://www.w3.org/1999/xlink">
    <!-- Generator: Sketch 40 (33762) - http://www.bohemiancoding.com/sketch -->
    <title>ico-link</title>
    <desc>Created with Sketch.</desc>
    <defs></defs>
    <g id="Symbols" stroke="none" stroke-width="1" fill="none" fill-rule="evenodd">
        <g id="ico-link" fill="#FFFFFF">
            <path d="M29.2199927,25.0990816 L44,10.3191078 L33.6807687,0 L18.9008614,14.7801737 L23.3571385,19.2362407 L19.2362844,23.3571854 L14.7800073,18.9009184 L-7.10542736e-15,33.6809921 L10.3191313,44 L25.0991386,29.2200263 L20.6428615,24.7638593 L24.7637156,20.6428146 L29.2199927,25.0990816 L29.2199927,25.0990816 Z M22.2858844,29.2200263 L10.3191313,41.1866522 L2.81335421,33.6809921 L14.7800073,21.7142662 L17.8295073,24.7638593 L11.3498947,31.2434572 L12.7563718,32.6501311 L19.2360844,26.1703332 L22.2858844,29.2200263 L22.2858844,29.2200263 Z M21.7143156,14.7801737 L33.6807687,2.81344779 L41.1866458,10.3191078 L29.2199927,22.2859337 L26.1703927,19.2362407 L32.6501053,12.7566428 L31.2434282,11.3498689 L24.7637156,17.8295668 L21.7143156,14.7801737 L21.7143156,14.7801737 Z" id="ico-objects"></path>
        </g>
    </g>
</svg>